<svg width="900" height="120" viewBox="0 0 900 120" xmlns="http://www.w3.org/2000/svg">
  <defs>
    <linearGradient id="bg" x1="0%" y1="0%" x2="100%" y2="100%">
      <stop offset="0%" style="stop-color:#0d0020"/>
      <stop offset="50%" style="stop-color:#1a0040"/>
      <stop offset="100%" style="stop-color:#0d0020"/>
    </linearGradient>
    <filter id="neon">
      <feGaussianBlur stdDeviation="3" result="blur"/>
      <feMerge><feMergeNode in="blur"/><feMergeNode in="SourceGraphic"/></feMerge>
    </filter>
    <filter id="softneon">
      <feGaussianBlur stdDeviation="5" result="blur"/>
      <feMerge><feMergeNode in="blur"/><feMergeNode in="SourceGraphic"/></feMerge>
    </filter>
  </defs>

  <!-- Background -->
  <rect width="900" height="120" fill="url(#bg)"/>

  <!-- Grid lines horizontal -->
  <g stroke="#3d1280" stroke-width="0.4" opacity="0.4">
    <line x1="0" y1="30" x2="900" y2="30"/>
    <line x1="0" y1="60" x2="900" y2="60"/>
    <line x1="0" y1="90" x2="900" y2="90"/>
  </g>

  <!-- Grid lines vertical -->
  <g stroke="#3d1280" stroke-width="0.4" opacity="0.4">
    <line x1="60"  y1="0" x2="60"  y2="120"/>
    <line x1="120" y1="0" x2="120" y2="120"/>
    <line x1="180" y1="0" x2="180" y2="120"/>
    <line x1="240" y1="0" x2="240" y2="120"/>
    <line x1="300" y1="0" x2="300" y2="120"/>
    <line x1="360" y1="0" x2="360" y2="120"/>
    <line x1="420" y1="0" x2="420" y2="120"/>
    <line x1="480" y1="0" x2="480" y2="120"/>
    <line x1="540" y1="0" x2="540" y2="120"/>
    <line x1="600" y1="0" x2="600" y2="120"/>
    <line x1="660" y1="0" x2="660" y2="120"/>
    <line x1="720" y1="0" x2="720" y2="120"/>
    <line x1="780" y1="0" x2="780" y2="120"/>
    <line x1="840" y1="0" x2="840" y2="120"/>
  </g>

  <!-- Pixel squares scattered -->
  <g filter="url(#neon)">
    <rect x="20" y="10" width="8" height="8" fill="none" stroke="#c084fc" stroke-width="1.2"/>
    <rect x="22" y="12" width="4" height="4" fill="#c084fc" opacity="0.7"/>

    <rect x="860" y="10" width="8" height="8" fill="none" stroke="#9b59f7" stroke-width="1.2"/>
    <rect x="862" y="12" width="4" height="4" fill="#9b59f7" opacity="0.7"/>

    <rect x="8" y="55" width="6" height="6" fill="none" stroke="#e879f9" stroke-width="1"/>
    <rect x="10" y="57" width="2" height="2" fill="#e879f9"/>

    <rect x="880" y="55" width="6" height="6" fill="none" stroke="#c084fc" stroke-width="1"/>
    <rect x="882" y="57" width="2" height="2" fill="#c084fc"/>

    <rect x="30" y="90" width="6" height="6" fill="none" stroke="#7c3aed" stroke-width="1"/>
    <rect x="32" y="92" width="2" height="2" fill="#7c3aed"/>

    <rect x="855" y="90" width="8" height="8" fill="none" stroke="#c084fc" stroke-width="1.2"/>
    <rect x="857" y="92" width="4" height="4" fill="#c084fc" opacity="0.6"/>

    <rect x="150" y="8" width="6" height="6" fill="none" stroke="#9b59f7" stroke-width="1"/>
    <rect x="152" y="10" width="2" height="2" fill="#9b59f7"/>

    <rect x="740" y="8" width="6" height="6" fill="none" stroke="#e879f9" stroke-width="1"/>
    <rect x="742" y="10" width="2" height="2" fill="#e879f9"/>

    <rect x="100" y="100" width="6" height="6" fill="none" stroke="#c084fc" stroke-width="1"/>
    <rect x="102" y="102" width="2" height="2" fill="#c084fc"/>

    <rect x="790" y="100" width="6" height="6" fill="none" stroke="#9b59f7" stroke-width="1"/>
    <rect x="792" y="102" width="2" height="2" fill="#9b59f7"/>
  </g>

  <!-- Top neon line -->
  <line x1="100" y1="18" x2="800" y2="18" stroke="#7c3aed" stroke-width="0.8" opacity="0.6"/>
  <line x1="200" y1="21" x2="700" y2="21" stroke="#9b59f7" stroke-width="0.4" opacity="0.4"/>

  <!-- Center text glow -->
  <text x="450" y="62" font-family="'Courier New', monospace" font-size="13"
        fill="#9b59f7" opacity="0.35" text-anchor="middle" filter="url(#softneon)">thanks for stopping by — let's build something cool 🚀</text>

  <!-- Center text -->
  <text x="450" y="62" font-family="'Courier New', monospace" font-size="13"
        fill="#c084fc" text-anchor="middle">thanks for stopping by — let's build something cool 🚀</text>

  <!-- caiolandgraf tag -->
  <text x="450" y="90" font-family="'Courier New', monospace" font-size="11"
        fill="#7c3aed" text-anchor="middle" opacity="0.9">// caiolandgraf</text>
</svg>
